<svg width="59" height="40" viewBox="0 0 59 40" fill="none" xmlns="http://www.w3.org/2000/svg">
<g clip-path="url(#clip0_210_635)">
<path d="M0.610352 17.7087C0.986015 18.3912 1.3982 19.0481 1.82604 19.6946C2.25388 20.3412 2.69215 20.9826 3.13043 21.6138C4.0435 22.8659 4.99831 24.0923 6.01051 25.2674C8.00978 27.6356 10.2166 29.8266 12.6055 31.8152C14.9635 33.7911 17.582 35.4447 20.3901 36.7312C23.1697 38.0015 26.1949 38.6683 29.2599 38.6863C32.3281 38.6371 35.3509 37.9498 38.1297 36.6696C40.9435 35.3873 43.5746 33.7484 45.956 31.7947C47.1665 30.83 48.3144 29.7883 49.4257 28.7158C50.537 27.6433 51.6118 26.5144 52.6345 25.3495C54.709 23.0302 56.5784 20.5409 58.2225 17.9089C56.8036 20.6893 55.0971 23.3186 53.1302 25.7549C51.1827 28.2246 49.0025 30.508 46.6187 32.5747C45.4185 33.6097 44.1533 34.5694 42.8307 35.4483C41.5043 36.3383 40.1086 37.1241 38.6567 37.7985C35.7218 39.1831 32.5195 39.9337 29.2651 40C26.0136 39.9665 22.8087 39.2363 19.8735 37.8601C16.9815 36.4825 14.304 34.7062 11.922 32.5849C9.56264 30.4858 7.41679 28.1657 5.51484 25.6574C4.57047 24.4207 3.65218 23.1379 2.83824 21.8139C2.00079 20.4974 1.25641 19.1258 0.610352 17.7087Z" fill="#E7D895"/>
<path d="M58.6661 16.3591C57.6672 17.1797 56.591 17.9048 55.4521 18.5246C54.8886 18.853 54.3043 19.1353 53.7303 19.438C53.1564 19.7408 52.5668 20.0076 51.9825 20.2899C49.6241 21.3709 47.2188 22.3442 44.7666 23.2097C42.3159 24.0923 39.8203 24.8493 37.2899 25.4778C36.6637 25.6523 36.0168 25.7754 35.3802 25.9191C34.7437 26.0628 34.0967 26.1757 33.4445 26.2834C33.121 26.3348 32.8028 26.4015 32.4741 26.4425L31.4879 26.5605C30.8358 26.6837 30.1575 26.6837 29.4896 26.6837C29.1543 26.7041 28.818 26.7041 28.4826 26.6837L27.4809 26.6324C26.8235 26.5503 26.1608 26.4836 25.5086 26.3861C24.8564 26.2886 24.2147 26.1654 23.5677 26.032C22.9207 25.8986 22.2894 25.76 21.6529 25.6061C19.1238 24.9707 16.63 24.2068 14.1813 23.3174C11.7465 22.4417 9.34816 21.4513 6.98635 20.3463L5.24369 19.4996C4.66976 19.1866 4.09062 18.8992 3.53234 18.5708C2.39935 17.9319 1.3287 17.1915 0.333984 16.3591L1.1427 16.8723C1.41402 17.0519 1.7062 17.1853 1.98795 17.3444C2.54101 17.6677 3.13581 17.9294 3.70974 18.2116C4.28367 18.4938 4.88368 18.7248 5.46805 19.007L7.25245 19.7408C9.64208 20.6952 12.0787 21.5419 14.5257 22.3065C16.9727 23.0711 19.4459 23.7998 21.9503 24.3591L23.8286 24.7543C24.4547 24.8774 25.0808 24.9698 25.7121 25.0775C26.3434 25.1853 26.9696 25.2264 27.5957 25.3033L28.5296 25.3444C28.8427 25.3444 29.1557 25.3803 29.4688 25.3444C32.007 25.23 34.5273 24.8673 36.9925 24.2616C37.6186 24.1128 38.2447 23.9845 38.8656 23.8203L40.7282 23.3072C41.9648 22.948 43.2013 22.6042 44.4275 22.2142C46.8849 21.4393 49.3215 20.6131 51.732 19.6741C52.3268 19.438 52.9321 19.2071 53.5216 18.9557C54.1112 18.7042 54.706 18.4425 55.2904 18.1808C55.8748 17.9191 56.4591 17.6677 57.0174 17.3239C57.2991 17.1699 57.5965 17.0365 57.8626 16.862L58.6661 16.3591Z" fill="#E7D895"/>
<path d="M58.567 11.8024C58.069 11.3282 57.5466 10.8794 57.0017 10.458C56.48 10.0269 55.9217 9.61639 55.3738 9.211C54.2729 8.40536 53.1407 7.64077 51.9877 6.90696C50.8346 6.17316 49.6711 5.46501 48.471 4.82358C47.8762 4.49003 47.2658 4.1924 46.6605 3.87938C46.0553 3.56636 45.4449 3.279 44.8135 3.02755C43.5874 2.48466 42.3145 2.05019 41.0099 1.72928C39.7182 1.4229 38.3942 1.26787 37.0655 1.26745C36.9037 1.26745 36.7368 1.26745 36.575 1.26745L36.095 1.3085C35.7776 1.33803 35.4623 1.38601 35.1506 1.45218C34.5403 1.58355 33.9542 1.80684 33.4132 2.11415C32.8443 2.4606 32.294 2.8357 31.7645 3.23794C31.4391 3.46522 31.0892 3.65625 30.721 3.80754C30.5203 3.8829 30.3146 3.94462 30.1053 3.99227C29.8966 4.02306 29.6827 4.03846 29.4687 4.05385L28.8426 4.00254C28.6391 3.95635 28.4304 3.89991 28.227 3.84346C28.0235 3.78701 27.8461 3.68438 27.6687 3.59715C27.4913 3.50991 27.3191 3.40215 27.1469 3.29439C26.6095 2.87874 26.0878 2.45796 25.566 2.14494C25.0314 1.83134 24.4506 1.60111 23.8442 1.46245C23.5349 1.39208 23.2212 1.34237 22.9051 1.31363C22.5764 1.2721 22.245 1.25494 21.9137 1.26232C20.5847 1.25824 19.2602 1.41333 17.9693 1.72415C16.666 2.04355 15.3947 2.47807 14.1709 3.02242C13.5396 3.26873 12.9396 3.58175 12.3239 3.86912C11.7082 4.15648 11.1082 4.4849 10.5134 4.81331C9.31337 5.45475 8.14985 6.17316 6.99678 6.8967C5.8437 7.62024 4.69584 8.3951 3.60537 9.20074C3.05231 9.60613 2.50447 10.0166 1.9775 10.4477C1.43952 10.873 0.924046 11.3252 0.433105 11.8024C1.33393 10.7685 2.31612 9.80592 3.37058 8.92364C4.41409 8.03076 5.50456 7.19433 6.6159 6.35789C8.84882 4.72114 11.2292 3.28862 13.7274 2.07823C14.9925 1.45624 16.3173 0.959469 17.6823 0.595224C19.0631 0.229396 20.484 0.0295205 21.9137 -2.96622e-05C22.2795 -0.0118805 22.6456 0.00183805 23.0094 0.0410223C23.3796 0.0748672 23.7473 0.131424 24.1103 0.210362C24.8439 0.377208 25.5475 0.652293 26.1973 1.02627C26.8443 1.40087 27.4026 1.85757 27.9243 2.20138C28.0548 2.28862 28.1852 2.35019 28.3104 2.4323C28.4357 2.5144 28.5661 2.54006 28.6913 2.59651L29.0774 2.69401C29.2131 2.69401 29.3487 2.70427 29.4844 2.72479C30.0436 2.7046 30.5807 2.5045 31.0131 2.1552C31.5774 1.73272 32.1643 1.34045 32.7714 0.980086C33.4234 0.618685 34.127 0.35575 34.8585 0.200099C35.2355 0.1243 35.6172 0.0728749 36.0011 0.0461538L36.5229 -2.96622e-05C36.7055 -2.96622e-05 36.8829 -2.96622e-05 37.0446 -2.96622e-05C38.4737 0.0286506 39.8943 0.225037 41.276 0.584961C42.6409 0.951815 43.9656 1.45028 45.2309 2.07309C47.7438 3.28487 50.1382 4.72086 52.3842 6.36302C53.4903 7.18406 54.586 8.0205 55.6295 8.92877C56.6825 9.81075 57.6646 10.7715 58.567 11.8024Z" fill="#E7D895"/>
<path d="M0 12.9365C0.622572 12.9182 1.24315 12.8582 1.85745 12.7569C2.47312 12.6594 3.07835 12.5363 3.68359 12.3977C4.89927 12.1206 6.09931 11.8025 7.30456 11.4843C8.50982 11.1662 9.73072 10.8634 10.9568 10.6017C12.2066 10.3252 13.4801 10.1655 14.7604 10.1245C16.0382 10.0974 17.3159 10.1781 18.5797 10.3657C19.8353 10.566 21.0775 10.8402 22.2998 11.1867C23.4748 11.5263 24.668 11.8022 25.8738 12.0129C27.0716 12.1969 28.2825 12.2861 29.4948 12.2797C30.7071 12.2861 31.918 12.1969 33.1158 12.0129C34.32 11.8028 35.5114 11.527 36.6846 11.1867C37.9078 10.8361 39.152 10.5601 40.4099 10.3605C41.674 10.1772 42.9516 10.0983 44.2291 10.1245C45.5098 10.1603 46.7839 10.3202 48.0327 10.6017C49.2641 10.8634 50.4797 11.1713 51.685 11.4843C52.8902 11.7974 54.0955 12.1206 55.306 12.3977C55.9112 12.5363 56.5217 12.6594 57.1373 12.7518C57.7512 12.8573 58.3719 12.919 58.9948 12.9365C57.7397 13.0153 56.4796 12.9551 55.2381 12.7569C53.9964 12.5876 52.765 12.3464 51.5389 12.1155C50.3128 11.8846 49.0919 11.6383 47.8866 11.4535C46.6808 11.2466 45.4583 11.1486 44.2343 11.161C43.0098 11.1886 41.7891 11.3052 40.5821 11.51C39.386 11.7342 38.2047 12.0289 37.0446 12.3926C35.8284 12.7683 34.5894 13.0683 33.3349 13.2906C32.067 13.4946 30.7847 13.5993 29.5 13.6036C28.2136 13.5991 26.9295 13.4944 25.6599 13.2906C24.4071 13.0659 23.1699 12.7643 21.9554 12.3875C20.7885 12.023 19.6002 11.7282 18.3971 11.5049C17.1897 11.3028 15.9691 11.1862 14.7448 11.1559C13.5207 11.1453 12.2981 11.2449 11.0925 11.4535C9.87159 11.6383 8.65069 11.8795 7.44022 12.1155C6.22975 12.3516 4.98275 12.5876 3.73576 12.7569C2.50123 12.9538 1.24817 13.014 0 12.9365H0Z" fill="#E7D895"/>
</g>
<defs>
<clipPath id="clip0_210_635">
<rect width="59" height="40" fill="white"/>
</clipPath>
</defs>
</svg>
