<svg width="46" height="49" viewBox="0 0 46 49" fill="none" xmlns="http://www.w3.org/2000/svg">
<g clip-path="url(#clip0_210_626)">
<path d="M4.96011 48.9999L5.75746 37.6984C2.06557 33.5634 0.0292599 28.242 0.0302738 22.7317C0.0312878 17.2215 2.06956 11.9007 5.76297 7.76705C9.45637 3.63336 14.5513 0.97055 20.0926 0.277808C25.6339 -0.414935 31.2411 0.909963 35.863 4.00412C40.4849 7.09828 43.8041 11.7492 45.1983 17.0851C46.5926 22.4209 45.9662 28.0752 43.4366 32.988C40.9069 37.9008 36.6478 41.7347 31.4575 43.771C26.2673 45.8073 20.5024 45.9061 15.2436 44.049L4.96011 48.9999ZM23.0001 0.942657C18.7388 0.93764 14.5675 2.15146 10.9911 4.43715C7.41472 6.72283 4.58677 9.98234 2.84965 13.821C1.11253 17.6596 0.540751 21.9128 1.20356 26.0654C1.86636 30.2181 3.73532 34.0921 6.58412 37.2184L6.71897 37.363L6.02715 47.4267L15.1791 43.0195L15.3667 43.0889C18.3907 44.1884 21.6223 44.6204 24.8338 44.3546C28.0454 44.0887 31.1588 43.1313 33.9547 41.55C36.7506 39.9686 39.1611 37.8017 41.0162 35.2019C42.8714 32.6021 44.1261 29.6326 44.6921 26.5026C45.258 23.3727 45.1214 20.1584 44.2918 17.0861C43.4623 14.0139 41.9599 11.1585 39.8907 8.721C37.8214 6.28352 35.2356 4.32329 32.3153 2.97838C29.395 1.63347 26.2113 0.936608 22.9884 0.936873L23.0001 0.942657Z" fill="#E7D895"/>
</g>
<defs>
<clipPath id="clip0_210_626">
<rect width="46" height="49" fill="white"/>
</clipPath>
</defs>
</svg>
